<?xml version="1.0" encoding="UTF-8" standalone="no"?>
<!-- Created with Inkscape (http://www.inkscape.org/) -->

<svg
   xmlns:dc="http://purl.org/dc/elements/1.1/"
   xmlns:cc="http://creativecommons.org/ns#"
   xmlns:rdf="http://www.w3.org/1999/02/22-rdf-syntax-ns#"
   xmlns:svg="http://www.w3.org/2000/svg"
   xmlns="http://www.w3.org/2000/svg"
   xmlns:sodipodi="http://sodipodi.sourceforge.net/DTD/sodipodi-0.dtd"
   xmlns:inkscape="http://www.inkscape.org/namespaces/inkscape"
   width="210mm"
   height="297mm"
   viewBox="0 0 210 297"
   version="1.1"
   id="svg8"
   inkscape:version="0.92.5 (2060ec1f9f, 2020-04-08)"
   sodipodi:docname="favicon.svg">
  <defs
     id="defs2" />
  <sodipodi:namedview
     id="base"
     pagecolor="#ffffff"
     bordercolor="#666666"
     borderopacity="1.0"
     inkscape:pageopacity="0.0"
     inkscape:pageshadow="2"
     inkscape:zoom="1.9352381"
     inkscape:cx="188.07815"
     inkscape:cy="614.57564"
     inkscape:document-units="mm"
     inkscape:current-layer="layer1"
     showgrid="false"
     inkscape:window-width="1680"
     inkscape:window-height="1025"
     inkscape:window-x="1680"
     inkscape:window-y="0"
     inkscape:window-maximized="1" />
  <metadata
     id="metadata5">
    <rdf:RDF>
      <cc:Work
         rdf:about="">
        <dc:format>image/svg+xml</dc:format>
        <dc:type
           rdf:resource="http://purl.org/dc/dcmitype/StillImage" />
        <dc:title></dc:title>
      </cc:Work>
    </rdf:RDF>
  </metadata>
  <g
     inkscape:label="Layer 1"
     inkscape:groupmode="layer"
     id="layer1">
    <path
       style="clip-rule:evenodd;fill:#e76f51;fill-rule:evenodd;stroke-width:0.26458332;fill-opacity:1"
       inkscape:connector-curvature="0"
       d="m 58.707623,94.246144 c 1.15756,1.505479 1.93728,2.855383 2.3413,4.048918 3.48906,3.121028 6.06848,6.407678 7.73933,9.859698 0.14658,0.0188 0.33073,0.0458 0.55086,0.0828 -0.0733,-0.20188 -0.13785,-0.40402 -0.19288,-0.60643 -1.89124,-5.82004 -5.37078,-10.281704 -10.43861,-13.385001 z m -17.92975,21.042046 c 2.68129,-1.3589 5.64621,-2.61646 8.89635,-3.77296 1.56051,-4.60904 2.15715,-8.53784 1.79043,-11.787978 -1.48722,-1.377156 -3.32369,-2.643981 -5.50836,-3.80074 -4.60904,-0.293687 -9.01541,1.394884 -13.22017,5.067298 -0.67945,1.94681 -1.0742,4.3061 -1.18454,7.07866 z m 6.69316,-24.677421 c 0.10981,0.09181 0.18336,0.192616 0.21987,0.302947 0.4961,-0.110331 0.94562,-0.211137 1.34991,-0.302947 -0.5506,-0.09208 -1.11072,-0.156369 -1.68011,-0.192882 0.0185,0.0553 0.055,0.119327 0.11033,0.192882 z m -2.86464,3.470275 c 0.44053,-1.046692 0.92763,-1.826948 1.45971,-2.341034 -0.64215,-0.67945 -1.6891,-1.083469 -3.13928,-1.212056 -1.72588,0.183621 -3.4425,0.560387 -5.15065,1.129506 -3.32317,1.083469 -6.20607,2.680494 -8.64843,4.792133 -0.23866,0.606161 -0.3392,1.092465 -0.30295,1.459971 v 0.08229 c 1.524,-0.03651 2.80961,0.202141 3.85604,0.716491 3.78221,-3.048264 7.75758,-4.590256 11.92556,-4.627297 z m -21.92285,18.811346 c -0.66092,-1.50627 -1.02843,-3.048 -1.10146,-4.6273 -1.46923,4.7924 -1.38694,9.70386 0.24739,14.7349 0.3855,1.21179 0.8726,2.44184 1.46023,3.69041 0.2204,-0.44053 0.44054,-0.82629 0.66093,-1.15702 -1.59781,-4.55348 -2.02035,-8.76696 -1.26709,-12.64099 z m 5.01227,-17.572038 c 0.0365,-0.05503 0.0646,-0.08255 0.0828,-0.08255 2.64398,-2.368815 5.79252,-4.1402 9.44641,-5.315479 1.85447,-0.605896 3.69967,-1.009915 5.53588,-1.212057 h 0.13785 c 3.21363,-0.366977 6.38069,-0.119327 9.50172,0.743744 l -0.0275,0.02752 c 1.72614,0.477308 3.44276,1.138502 5.15091,1.983052 0,0.01826 0.018,0.03678 0.0548,0.05503 6.55531,3.360209 10.9802,8.537578 13.27494,15.533418 0.11033,0.38577 0.22965,0.77153 0.35824,1.15703 1.87272,6.62834 1.21179,13.04527 -1.98305,19.25107 -0.0733,0.14737 -0.14658,0.31274 -0.2204,0.49609 -1.04669,1.92802 -2.26721,3.69967 -3.66342,5.31601 -3.048,3.4335 -6.92203,5.91238 -11.62235,7.43585 -3.58061,1.1565 -7.09692,1.5883 -10.54867,1.29434 h -0.0275 c -3.32343,-0.29342 -6.58257,-1.25756 -9.77741,-2.89189 -0.0183,0 -0.0368,-0.009 -0.0548,-0.0275 -5.08635,-2.58895 -8.82253,-6.19707 -11.20987,-10.8241 -0.84428,-1.59703 -1.515,-3.16733 -2.0103,-4.70959 -1.92776,-5.87585 -1.85447,-11.59509 0.21987,-17.15874 0.16563,-0.53261 0.3675,-1.06495 0.60642,-1.59703 0.23813,-0.51408 0.50509,-1.05595 0.79878,-1.62507 0.1098,-0.23892 0.22913,-0.47757 0.35798,-0.71596 1.50574,-2.791091 3.37899,-5.168637 5.61869,-7.133168 z m -0.5506,3.222096 c -0.0182,-0.03651 -0.0275,-0.07302 -0.0275,-0.109802 -0.14711,0.146314 -0.2847,0.302947 -0.41328,0.468047 0.1651,-0.128587 0.31221,-0.247914 0.44079,-0.358245 z m 26.21942,1.983312 c 0.2024,3.17633 -0.43127,6.95907 -1.89998,11.34692 2.66224,2.14869 4.81092,4.56327 6.44446,7.24377 l 8.5934,-2.03809 c 0.80804,-2.16667 1.25757,-4.28731 1.34938,-6.36217 -1.45045,-3.89308 -4.11295,-7.57396 -7.98671,-11.044236 -2.35056,-0.03625 -4.51724,0.24765 -6.50055,0.853806 z m -22.91451,8.95112 c -2.14868,0.77073 -4.1312,2.00158 -5.94889,3.69068 -0.80804,4.14946 -0.17462,8.69393 1.9005,13.63317 1.46871,1.56025 3.22236,2.90116 5.26045,4.02087 3.1033,-1.32212 6.00366,-2.85538 8.70347,-4.59978 -0.67972,-2.44184 -0.87286,-5.58164 -0.57865,-9.41915 z m 37.86982,15.67126 c -0.018,-2.40559 -0.56886,-4.48045 -1.65233,-6.22484 l -8.64843,2.06613 c -1.02817,2.58868 -2.8829,5.32473 -5.56313,8.20737 l 2.61673,6.77518 c 1.72535,0.1651 3.97483,-0.42201 6.74767,-1.76265 0.77073,-0.67945 1.48748,-1.41367 2.14788,-2.20319 1.30387,-1.45018 2.45163,-3.10303 3.44276,-4.95749 0.0556,-0.12859 0.12859,-0.27544 0.2204,-0.4408 0.23892,-0.4953 0.46778,-0.98266 0.68845,-1.45971 z m -14.95531,11.45752 -2.5609,-6.72015 c -2.64399,0.0918 -5.72876,-0.67046 -9.25407,-2.28653 -2.66277,1.76292 -5.52662,3.30491 -8.5934,4.6273 0.47731,1.61581 1.06494,2.99296 1.76292,4.13147 4.71857,1.72587 7.69329,3.02021 8.9236,3.88302 0.86307,0.0365 1.72587,0.0365 2.58921,0 3.52504,-1.10172 5.90232,-2.31352 7.13264,-3.63511 z"
       id="path115"
       inkscape:export-xdpi="400"
       inkscape:export-ydpi="400" />
  </g>
</svg>
